<svg width="20" height="20" viewBox="0 0 20 20" fill="none" xmlns="http://www.w3.org/2000/svg">
<path d="M12.2529 17.3861L12.262 17.3925C13.0491 17.8936 13.9835 18.1112 14.911 18.0094C15.8384 17.9075 16.7034 17.4923 17.3629 16.8323L17.9359 16.2593C18.0628 16.1324 18.1636 15.9818 18.2323 15.816C18.301 15.6501 18.3364 15.4724 18.3364 15.2929C18.3364 15.1134 18.301 14.9356 18.2323 14.7698C18.1636 14.604 18.0628 14.4533 17.9359 14.3264L15.5193 11.9117C15.3924 11.7847 15.2418 11.684 15.0759 11.6153C14.9101 11.5466 14.7324 11.5112 14.5529 11.5112C14.3734 11.5112 14.1956 11.5466 14.0298 11.6153C13.864 11.684 13.7133 11.7847 13.5864 11.9117C13.3302 12.1678 12.9827 12.3117 12.6204 12.3117C12.2581 12.3117 11.9107 12.1678 11.6545 11.9117L7.79047 8.04683C7.53433 7.79061 7.39043 7.44314 7.39043 7.08085C7.39043 6.71855 7.53433 6.37108 7.79047 6.11486C7.91744 5.98797 8.01816 5.83731 8.08688 5.67148C8.1556 5.50566 8.19097 5.32792 8.19097 5.14841C8.19097 4.96891 8.1556 4.79117 8.08688 4.62534C8.01816 4.45952 7.91744 4.30886 7.79047 4.18197L5.37482 1.76723C5.1186 1.51108 4.77113 1.36719 4.40883 1.36719C4.04653 1.36719 3.69906 1.51108 3.44284 1.76723L2.86899 2.34017C2.20914 2.99981 1.79408 3.86483 1.69239 4.79229C1.5907 5.71975 1.80846 6.65415 2.30971 7.4411L2.31517 7.45021C4.96236 11.3668 8.3358 14.7396 12.2529 17.3861Z" stroke="white" stroke-width="1.4" stroke-linecap="round" stroke-linejoin="round"/>
</svg>
