<svg width="20" height="20" viewBox="0 0 20 20" fill="none" xmlns="http://www.w3.org/2000/svg">
<path d="M12.2519 17.3861L12.261 17.3925C13.0481 17.8936 13.9825 18.1112 14.91 18.0094C15.8374 17.9075 16.7024 17.4923 17.3619 16.8323L17.9349 16.2593C18.0618 16.1324 18.1626 15.9818 18.2313 15.816C18.3 15.6501 18.3354 15.4724 18.3354 15.2929C18.3354 15.1134 18.3 14.9356 18.2313 14.7698C18.1626 14.604 18.0618 14.4533 17.9349 14.3264L15.5183 11.9117C15.3914 11.7847 15.2408 11.684 15.0749 11.6153C14.9091 11.5466 14.7314 11.5112 14.5519 11.5112C14.3724 11.5112 14.1946 11.5466 14.0288 11.6153C13.863 11.684 13.7123 11.7847 13.5854 11.9117C13.3292 12.1678 12.9817 12.3117 12.6194 12.3117C12.2571 12.3117 11.9097 12.1678 11.6535 11.9117L7.7895 8.04683C7.53336 7.79061 7.38946 7.44314 7.38946 7.08085C7.38946 6.71855 7.53336 6.37108 7.7895 6.11486C7.91647 5.98797 8.01719 5.83731 8.08591 5.67148C8.15463 5.50566 8.19 5.32792 8.19 5.14841C8.19 4.96891 8.15463 4.79117 8.08591 4.62534C8.01719 4.45952 7.91647 4.30886 7.7895 4.18197L5.37385 1.76723C5.11763 1.51108 4.77016 1.36719 4.40786 1.36719C4.04556 1.36719 3.69809 1.51108 3.44187 1.76723L2.86802 2.34017C2.20817 2.99981 1.79311 3.86483 1.69142 4.79229C1.58973 5.71975 1.80749 6.65415 2.30874 7.4411L2.3142 7.45021C4.96139 11.3668 8.33483 14.7396 12.2519 17.3861V17.3861Z" stroke="#007CC3" stroke-width="1.4" stroke-linecap="round" stroke-linejoin="round"/>
</svg>
