<svg width="168" height="168" viewBox="0 0 168 168" fill="none" xmlns="http://www.w3.org/2000/svg">
<path d="M4.12112 160.164C2.12071 160.164 0.5 161.784 0.5 163.785C0.5 165.784 2.12071 167.404 4.12112 167.404C6.11988 167.404 7.74059 165.784 7.74059 163.785C7.74059 161.784 6.11988 160.164 4.12112 160.164Z" fill="#003C3C" fill-opacity="0.3"/>
<path d="M36.0158 160.164C34.0171 160.164 32.3964 161.784 32.3964 163.785C32.3964 165.784 34.0171 167.404 36.0158 167.404C38.0162 167.404 39.6353 165.784 39.6353 163.785C39.6353 161.784 38.0162 160.164 36.0158 160.164Z" fill="#003C3C" fill-opacity="0.3"/>
<path d="M67.9123 160.164C65.9119 160.164 64.2912 161.784 64.2912 163.785C64.2912 165.784 65.9119 167.404 67.9123 167.404C69.9111 167.404 71.5318 165.784 71.5318 163.785C71.5318 161.784 69.9111 160.164 67.9123 160.164Z" fill="#003C3C" fill-opacity="0.3"/>
<path d="M99.8071 160.164C97.8067 160.164 96.1876 161.784 96.1876 163.785C96.1876 165.784 97.8067 167.404 99.8071 167.404C101.807 167.404 103.427 165.784 103.427 163.785C103.427 161.784 101.807 160.164 99.8071 160.164Z" fill="#003C3C" fill-opacity="0.3"/>
<path d="M131.702 160.164C129.703 160.164 128.082 161.784 128.082 163.785C128.082 165.784 129.703 167.404 131.702 167.404C133.702 167.404 135.323 165.784 135.323 163.785C135.323 161.784 133.702 160.164 131.702 160.164Z" fill="#003C3C" fill-opacity="0.3"/>
<path d="M163.598 160.164C161.598 160.164 159.979 161.784 159.979 163.785C159.979 165.784 161.598 167.404 163.598 167.404C165.597 167.404 167.218 165.784 167.218 163.785C167.218 161.784 165.597 160.164 163.598 160.164Z" fill="#003C3C" fill-opacity="0.3"/>
<path d="M4.12112 128.266C2.12071 128.266 0.5 129.887 0.5 131.887C0.5 133.886 2.12071 135.507 4.12112 135.507C6.11988 135.507 7.74059 133.886 7.74059 131.887C7.74059 129.887 6.11988 128.266 4.12112 128.266Z" fill="#003C3C" fill-opacity="0.3"/>
<path d="M36.0158 128.266C34.0171 128.266 32.3964 129.887 32.3964 131.887C32.3964 133.886 34.0171 135.507 36.0158 135.507C38.0162 135.507 39.6353 133.886 39.6353 131.887C39.6353 129.887 38.0162 128.266 36.0158 128.266Z" fill="#003C3C" fill-opacity="0.3"/>
<path d="M67.9123 128.266C65.9119 128.266 64.2912 129.887 64.2912 131.887C64.2912 133.886 65.9119 135.507 67.9123 135.507C69.9111 135.507 71.5318 133.886 71.5318 131.887C71.5318 129.887 69.9111 128.266 67.9123 128.266Z" fill="#003C3C" fill-opacity="0.3"/>
<path d="M99.8071 128.266C97.8067 128.266 96.1876 129.887 96.1876 131.887C96.1876 133.886 97.8067 135.507 99.8071 135.507C101.807 135.507 103.427 133.886 103.427 131.887C103.427 129.887 101.807 128.266 99.8071 128.266Z" fill="#003C3C" fill-opacity="0.3"/>
<path d="M131.702 128.266C129.703 128.266 128.082 129.887 128.082 131.887C128.082 133.886 129.703 135.507 131.702 135.507C133.702 135.507 135.323 133.886 135.323 131.887C135.323 129.887 133.702 128.266 131.702 128.266Z" fill="#003C3C" fill-opacity="0.3"/>
<path d="M163.598 128.266C161.598 128.266 159.979 129.887 159.979 131.887C159.979 133.886 161.598 135.507 163.598 135.507C165.597 135.507 167.218 133.886 167.218 131.887C167.218 129.887 165.597 128.266 163.598 128.266Z" fill="#003C3C" fill-opacity="0.3"/>
<path d="M4.12112 96.3707C2.12071 96.3707 0.5 97.9914 0.5 99.9902C0.5 101.989 2.12071 103.611 4.12112 103.611C6.11988 103.611 7.74059 101.989 7.74059 99.9902C7.74059 97.9914 6.11988 96.3707 4.12112 96.3707Z" fill="#003C3C" fill-opacity="0.3"/>
<path d="M36.0158 96.3707C34.0171 96.3707 32.3964 97.9914 32.3964 99.9902C32.3964 101.989 34.0171 103.611 36.0158 103.611C38.0162 103.611 39.6353 101.989 39.6353 99.9902C39.6353 97.9914 38.0162 96.3707 36.0158 96.3707Z" fill="#003C3C" fill-opacity="0.3"/>
<path d="M67.9123 96.3707C65.9119 96.3707 64.2912 97.9914 64.2912 99.9902C64.2912 101.989 65.9119 103.611 67.9123 103.611C69.9111 103.611 71.5318 101.989 71.5318 99.9902C71.5318 97.9914 69.9111 96.3707 67.9123 96.3707Z" fill="#003C3C" fill-opacity="0.3"/>
<path d="M99.8071 96.3707C97.8067 96.3707 96.1876 97.9914 96.1876 99.9902C96.1876 101.989 97.8067 103.611 99.8071 103.611C101.807 103.611 103.427 101.989 103.427 99.9902C103.427 97.9914 101.807 96.3707 99.8071 96.3707Z" fill="#003C3C" fill-opacity="0.3"/>
<path d="M131.702 96.3707C129.703 96.3707 128.082 97.9914 128.082 99.9902C128.082 101.989 129.703 103.611 131.702 103.611C133.702 103.611 135.323 101.989 135.323 99.9902C135.323 97.9914 133.702 96.3707 131.702 96.3707Z" fill="#003C3C" fill-opacity="0.3"/>
<path d="M163.598 96.3707C161.598 96.3707 159.979 97.9914 159.979 99.9902C159.979 101.989 161.598 103.611 163.598 103.611C165.597 103.611 167.218 101.989 167.218 99.9902C167.218 97.9914 165.597 96.3707 163.598 96.3707Z" fill="#003C3C" fill-opacity="0.3"/>
<path d="M4.12112 64.4743C2.12071 64.4743 0.5 66.095 0.5 68.0954C0.5 70.0941 2.12071 71.7148 4.12112 71.7148C6.11988 71.7148 7.74059 70.0941 7.74059 68.0954C7.74059 66.095 6.11988 64.4743 4.12112 64.4743Z" fill="#003C3C" fill-opacity="0.3"/>
<path d="M36.0158 64.4743C34.0171 64.4743 32.3964 66.095 32.3964 68.0954C32.3964 70.0941 34.0171 71.7148 36.0158 71.7148C38.0162 71.7148 39.6353 70.0941 39.6353 68.0954C39.6353 66.095 38.0162 64.4743 36.0158 64.4743Z" fill="#003C3C" fill-opacity="0.3"/>
<path d="M67.9123 64.4743C65.9119 64.4743 64.2912 66.095 64.2912 68.0954C64.2912 70.0941 65.9119 71.7148 67.9123 71.7148C69.9111 71.7148 71.5318 70.0941 71.5318 68.0954C71.5318 66.095 69.9111 64.4743 67.9123 64.4743Z" fill="#003C3C" fill-opacity="0.3"/>
<path d="M99.8071 64.4743C97.8067 64.4743 96.1876 66.095 96.1876 68.0954C96.1876 70.0941 97.8067 71.7148 99.8071 71.7148C101.807 71.7148 103.427 70.0941 103.427 68.0954C103.427 66.095 101.807 64.4743 99.8071 64.4743Z" fill="#003C3C" fill-opacity="0.3"/>
<path d="M131.702 64.4743C129.703 64.4743 128.082 66.095 128.082 68.0954C128.082 70.0941 129.703 71.7148 131.702 71.7148C133.702 71.7148 135.323 70.0941 135.323 68.0954C135.323 66.095 133.702 64.4743 131.702 64.4743Z" fill="#003C3C" fill-opacity="0.3"/>
<path d="M163.598 64.4743C161.598 64.4743 159.979 66.095 159.979 68.0954C159.979 70.0941 161.598 71.7148 163.598 71.7148C165.597 71.7148 167.218 70.0941 167.218 68.0954C167.218 66.095 165.597 64.4743 163.598 64.4743Z" fill="#003C3C" fill-opacity="0.3"/>
<path d="M4.12112 32.5787C2.12071 32.5787 0.5 34.1995 0.5 36.1999C0.5 38.1986 2.12071 39.8193 4.12112 39.8193C6.11988 39.8193 7.74059 38.1986 7.74059 36.1999C7.74059 34.1995 6.11988 32.5787 4.12112 32.5787Z" fill="#003C3C" fill-opacity="0.3"/>
<path d="M36.0158 32.5787C34.0171 32.5787 32.3964 34.1995 32.3964 36.1999C32.3964 38.1986 34.0171 39.8193 36.0158 39.8193C38.0162 39.8193 39.6353 38.1986 39.6353 36.1999C39.6353 34.1995 38.0162 32.5787 36.0158 32.5787Z" fill="#003C3C" fill-opacity="0.3"/>
<path d="M67.9123 32.5787C65.9119 32.5787 64.2912 34.1995 64.2912 36.1999C64.2912 38.1986 65.9119 39.8193 67.9123 39.8193C69.9111 39.8193 71.5318 38.1986 71.5318 36.1999C71.5318 34.1995 69.9111 32.5787 67.9123 32.5787Z" fill="#003C3C" fill-opacity="0.3"/>
<path d="M99.8071 32.5787C97.8067 32.5787 96.1876 34.1995 96.1876 36.1999C96.1876 38.1986 97.8067 39.8193 99.8071 39.8193C101.807 39.8193 103.427 38.1986 103.427 36.1999C103.427 34.1995 101.807 32.5787 99.8071 32.5787Z" fill="#003C3C" fill-opacity="0.3"/>
<path d="M131.702 32.5787C129.703 32.5787 128.082 34.1995 128.082 36.1999C128.082 38.1986 129.703 39.8193 131.702 39.8193C133.702 39.8193 135.323 38.1986 135.323 36.1999C135.323 34.1995 133.702 32.5787 131.702 32.5787Z" fill="#003C3C" fill-opacity="0.3"/>
<path d="M163.598 32.5787C161.598 32.5787 159.979 34.1995 159.979 36.1999C159.979 38.1986 161.598 39.8193 163.598 39.8193C165.597 39.8193 167.218 38.1986 167.218 36.1999C167.218 34.1995 165.597 32.5787 163.598 32.5787Z" fill="#003C3C" fill-opacity="0.3"/>
<path d="M4.12112 0.681282C2.12071 0.681282 0.5 2.30199 0.5 4.30076C0.5 6.29952 2.12071 7.92188 4.12112 7.92188C6.11988 7.92188 7.74059 6.29952 7.74059 4.30076C7.74059 2.30199 6.11988 0.681282 4.12112 0.681282Z" fill="#003C3C" fill-opacity="0.3"/>
<path d="M36.0158 0.681282C34.0171 0.681282 32.3964 2.30199 32.3964 4.30076C32.3964 6.29952 34.0171 7.92188 36.0158 7.92188C38.0162 7.92188 39.6353 6.29952 39.6353 4.30076C39.6353 2.30199 38.0162 0.681282 36.0158 0.681282Z" fill="#003C3C" fill-opacity="0.3"/>
<path d="M67.9123 0.681282C65.9119 0.681282 64.2912 2.30199 64.2912 4.30076C64.2912 6.29952 65.9119 7.92188 67.9123 7.92188C69.9111 7.92188 71.5318 6.29952 71.5318 4.30076C71.5318 2.30199 69.9111 0.681282 67.9123 0.681282Z" fill="#003C3C" fill-opacity="0.3"/>
<path d="M99.8071 0.681282C97.8067 0.681282 96.1876 2.30199 96.1876 4.30076C96.1876 6.29952 97.8067 7.92188 99.8071 7.92188C101.807 7.92188 103.427 6.29952 103.427 4.30076C103.427 2.30199 101.807 0.681282 99.8071 0.681282Z" fill="#003C3C" fill-opacity="0.3"/>
<path d="M131.702 0.681282C129.703 0.681282 128.082 2.30199 128.082 4.30076C128.082 6.29952 129.703 7.92188 131.702 7.92188C133.702 7.92188 135.323 6.29952 135.323 4.30076C135.323 2.30199 133.702 0.681282 131.702 0.681282Z" fill="#003C3C" fill-opacity="0.3"/>
<path d="M163.598 0.681282C161.598 0.681282 159.979 2.30199 159.979 4.30076C159.979 6.29952 161.598 7.92188 163.598 7.92188C165.597 7.92188 167.218 6.29952 167.218 4.30076C167.218 2.30199 165.597 0.681282 163.598 0.681282Z" fill="#003C3C" fill-opacity="0.3"/>
</svg>
