<svg width="20" height="20" viewBox="0 0 20 20" fill="none" xmlns="http://www.w3.org/2000/svg">
<path d="M18.3337 5.95117V14.2845C18.3337 14.837 18.1142 15.3669 17.7235 15.7576C17.3328 16.1483 16.8029 16.3678 16.2503 16.3678H3.75033C3.19779 16.3678 2.66789 16.1483 2.27719 15.7576C1.88649 15.3669 1.66699 14.837 1.66699 14.2845V5.95117" stroke="#007CC3" stroke-width="1.4" stroke-linecap="round" stroke-linejoin="round"/>
<path d="M18.3337 5.95052C18.3337 5.39799 18.1142 4.86808 17.7235 4.47738C17.3328 4.08668 16.8029 3.86719 16.2503 3.86719H3.75033C3.19779 3.86719 2.66789 4.08668 2.27719 4.47738C1.88649 4.86808 1.66699 5.39799 1.66699 5.95052L8.89616 10.4644C9.22727 10.6714 9.60987 10.7811 10.0003 10.7811C10.3908 10.7811 10.7734 10.6714 11.1045 10.4644L18.3337 5.95052Z" stroke="#007CC3" stroke-width="1.4" stroke-linecap="round" stroke-linejoin="round"/>
</svg>
