<svg width="20" height="20" viewBox="0 0 20 20" fill="none" xmlns="http://www.w3.org/2000/svg">
<path d="M18.3327 5.94922V14.2825C18.3327 14.835 18.1132 15.3649 17.7225 15.7556C17.3318 16.1463 16.8019 16.3658 16.2493 16.3658H3.74936C3.19682 16.3658 2.66692 16.1463 2.27622 15.7556C1.88552 15.3649 1.66602 14.835 1.66602 14.2825V5.94922" stroke="white" stroke-width="1.4" stroke-linecap="round" stroke-linejoin="round"/>
<path d="M18.3327 5.95052C18.3327 5.39799 18.1132 4.86808 17.7225 4.47738C17.3318 4.08668 16.8019 3.86719 16.2493 3.86719H3.74936C3.19682 3.86719 2.66692 4.08668 2.27622 4.47738C1.88552 4.86808 1.66602 5.39799 1.66602 5.95052L8.89519 10.4644C9.2263 10.6714 9.6089 10.7811 9.99933 10.7811C10.3898 10.7811 10.7724 10.6714 11.1035 10.4644L18.3327 5.95052Z" stroke="white" stroke-width="1.4" stroke-linecap="round" stroke-linejoin="round"/>
</svg>
