<svg width="16" height="16" viewBox="0 0 16 16" fill="none" xmlns="http://www.w3.org/2000/svg">
<path d="M14.6 8.15625C14.6 7.66875 14.5562 7.2 14.475 6.75H8V9.4125H11.7C11.5375 10.2688 11.05 10.9938 10.3187 11.4813V13.2125H12.55C13.85 12.0125 14.6 10.25 14.6 8.15625Z" fill="white"/>
<path d="M7.99999 14.875C9.85624 14.875 11.4125 14.2625 12.55 13.2125L10.3187 11.4812C9.70624 11.8937 8.92499 12.1437 7.99999 12.1437C6.21249 12.1437 4.69374 10.9375 4.14999 9.3125H1.86249V11.0875C2.99374 13.3313 5.31249 14.875 7.99999 14.875Z" fill="white"/>
<path d="M4.15 9.30645C4.0125 8.89395 3.93125 8.45645 3.93125 8.0002C3.93125 7.54395 4.0125 7.10645 4.15 6.69395V4.91895H1.8625C1.39375 5.84395 1.125 6.8877 1.125 8.0002C1.125 9.1127 1.39375 10.1564 1.8625 11.0814L3.64375 9.69395L4.15 9.30645Z" fill="white"/>
<path d="M7.99999 3.8625C9.01249 3.8625 9.91249 4.2125 10.6312 4.8875L12.6 2.91875C11.4062 1.80625 9.85624 1.125 7.99999 1.125C5.31249 1.125 2.99374 2.66875 1.86249 4.91875L4.14999 6.69375C4.69374 5.06875 6.21249 3.8625 7.99999 3.8625Z" fill="white"/>
</svg>
