<svg width="24" height="25" viewBox="0 0 24 25" fill="none" xmlns="http://www.w3.org/2000/svg">
<mask id="mask0_71_1151" style="mask-type:alpha" maskUnits="userSpaceOnUse" x="0" y="0" width="24" height="25">
<rect y="0.5" width="24" height="24" fill="#D9D9D9"/>
</mask>
<g mask="url(#mask0_71_1151)">
<path d="M12.9462 12.5005L8.8731 8.42737C8.73464 8.28892 8.6638 8.11489 8.6606 7.90527C8.65739 7.69568 8.72822 7.51844 8.8731 7.37357C9.01797 7.22869 9.1936 7.15625 9.4 7.15625C9.6064 7.15625 9.78204 7.22869 9.9269 7.37357L14.4211 11.8678C14.5147 11.9614 14.5808 12.0601 14.6192 12.1639C14.6577 12.2678 14.6769 12.38 14.6769 12.5005C14.6769 12.621 14.6577 12.7332 14.6192 12.837C14.5808 12.9408 14.5147 13.0396 14.4211 13.1331L9.9269 17.6274C9.78845 17.7658 9.61442 17.8367 9.4048 17.8399C9.1952 17.8431 9.01797 17.7723 8.8731 17.6274C8.72822 17.4825 8.65578 17.3069 8.65578 17.1005C8.65578 16.8941 8.72822 16.7184 8.8731 16.5736L12.9462 12.5005Z" fill="white"/>
</g>
</svg>
