<svg width="16" height="16" viewBox="0 0 16 16" fill="none" xmlns="http://www.w3.org/2000/svg">
<g clip-path="url(#clip0_231_427)">
<path d="M3.82493 5.32617H0.813652C0.680007 5.32617 0.571716 5.43451 0.571716 5.56811V15.242C0.571716 15.3757 0.680007 15.484 0.813652 15.484H3.82493C3.95857 15.484 4.06686 15.3757 4.06686 15.242V5.56811C4.06686 5.43451 3.95857 5.32617 3.82493 5.32617Z" fill="white"/>
<path d="M2.32038 0.516602C1.2247 0.516602 0.333313 1.40702 0.333313 2.50149C0.333313 3.59644 1.2247 4.4872 2.32038 4.4872C3.41518 4.4872 4.30585 3.59639 4.30585 2.50149C4.30589 1.40702 3.41518 0.516602 2.32038 0.516602Z" fill="white"/>
<path d="M11.4843 5.08496C10.2749 5.08496 9.38085 5.60488 8.83858 6.19564V5.56733C8.83858 5.43374 8.73029 5.3254 8.59664 5.3254H5.71282C5.57918 5.3254 5.47089 5.43374 5.47089 5.56733V15.2413C5.47089 15.3749 5.57918 15.4832 5.71282 15.4832H8.71751C8.85116 15.4832 8.95945 15.3749 8.95945 15.2413V10.4549C8.95945 8.84203 9.39755 8.21367 10.5219 8.21367C11.7464 8.21367 11.8437 9.22099 11.8437 10.5379V15.2413C11.8437 15.375 11.952 15.4833 12.0856 15.4833H15.0914C15.225 15.4833 15.3333 15.375 15.3333 15.2413V9.93499C15.3333 7.53669 14.876 5.08496 11.4843 5.08496Z" fill="white"/>
</g>
<defs>
<clipPath id="clip0_231_427">
<rect width="15" height="15" fill="white" transform="translate(0.333313 0.5)"/>
</clipPath>
</defs>
</svg>
