<svg width="20" height="20" viewBox="0 0 20 20" fill="none" xmlns="http://www.w3.org/2000/svg">
<path d="M16.8612 8.95753C16.8612 14.3364 11.352 17.6501 10.2071 18.2813C10.1437 18.3163 10.0724 18.3346 9.99998 18.3346C9.92755 18.3346 9.8563 18.3163 9.79287 18.2813C8.64712 17.6501 3.13965 14.3364 3.13965 8.95753C3.13965 4.66955 5.71243 1.66797 10.0004 1.66797C14.2884 1.66797 16.8612 4.66955 16.8612 8.95753Z" stroke="#007CC3" stroke-width="1.4" stroke-linecap="round" stroke-linejoin="round"/>
<path d="M6.57031 8.52804C6.57031 9.43783 6.93173 10.3104 7.57505 10.9537C8.21837 11.597 9.0909 11.9584 10.0007 11.9584C10.9105 11.9584 11.783 11.597 12.4263 10.9537C13.0697 10.3104 13.4311 9.43783 13.4311 8.52804C13.4311 7.61824 13.0697 6.74571 12.4263 6.10239C11.783 5.45907 10.9105 5.09766 10.0007 5.09766C9.0909 5.09766 8.21837 5.45907 7.57505 6.10239C6.93173 6.74571 6.57031 7.61824 6.57031 8.52804V8.52804Z" stroke="#007CC3" stroke-width="1.4" stroke-linecap="round" stroke-linejoin="round"/>
</svg>
