<svg width="21" height="21" viewBox="0 0 21 21" fill="none" xmlns="http://www.w3.org/2000/svg">
<g clip-path="url(#clip0_274_2397)">
<path d="M0.731124 6.88815L1.98308 7.86636L0.804751 10.1236C0.215601 11.1645 1.22773 12.1785 1.87259 12.5315C2.50743 12.8789 3.49276 12.9202 4.41331 12.9077L6.07031 10.1989L7.32227 10.8761L5.14975 6.85057L0.731124 6.88815ZM0.915209 12.4138L3.60322 17.3799C4.14328 18.0696 5.16204 18.2327 6.21759 18.2076H9.05289V13.5049L3.67688 13.4673C2.84227 13.5174 1.74985 13.3418 0.915209 12.4138ZM17.8268 3.26194L16.3644 3.8827L14.9613 1.75779C14.3366 0.737892 12.959 1.13152 12.3377 1.52443C11.7261 1.91123 11.2122 2.75299 10.7769 3.5642L12.3427 6.32668L11.1435 7.09335L15.7175 7.14485L17.8268 3.26194ZM12.9047 0.744101L7.25812 0.6875C6.39305 0.825441 5.75655 1.6374 5.26675 2.57283L3.89217 5.05263L8.00527 7.33257L10.6445 2.64881C11.0053 1.89446 11.6884 1.02417 12.9047 0.744101ZM13.1503 19.9062L13.3164 18.3261L15.8551 18.1292C17.05 18.0772 17.3736 16.6816 17.3312 15.9477C17.2895 15.2252 16.8023 14.3677 16.3038 13.5936L13.1286 13.6239L13.0394 12.2033L10.7768 16.1789L13.1503 19.9062ZM17.7388 16.8219L20.5258 11.9108C20.8246 11.0873 20.423 10.1369 19.8423 9.25502L18.3399 6.85054L14.3517 9.3426L17.1687 13.9217C17.6535 14.6029 18.0835 15.6223 17.7388 16.8219Z" fill="#4DD76B"/>
</g>
<defs>
<clipPath id="clip0_274_2397">
<rect width="20" height="20" fill="white" transform="translate(0.627197 0.296875)"/>
</clipPath>
</defs>
</svg>
