<svg width="20" height="20" viewBox="0 0 20 20" fill="none" xmlns="http://www.w3.org/2000/svg">
<g clip-path="url(#clip0_717_1940)">
<mask id="mask0_717_1940" style="mask-type:luminance" maskUnits="userSpaceOnUse" x="0" y="0" width="20" height="20">
<path d="M20 0H0V20H20V0Z" fill="white"/>
</mask>
<g mask="url(#mask0_717_1940)">
<path d="M0.046875 20L1.45271 14.8642C0.585209 13.3608 0.129375 11.6567 0.130209 9.90917C0.132709 4.44583 4.57854 0 10.0411 0C12.6919 0.000833333 15.1802 1.03333 17.0519 2.90667C18.9227 4.78 19.9527 7.27 19.9519 9.91833C19.9494 15.3825 15.5036 19.8283 10.0411 19.8283C8.38271 19.8275 6.74854 19.4117 5.30104 18.6217L0.046875 20ZM5.54438 16.8275C6.94104 17.6567 8.27438 18.1533 10.0377 18.1542C14.5777 18.1542 18.2761 14.4592 18.2786 9.91667C18.2802 5.365 14.5994 1.675 10.0444 1.67333C5.50104 1.67333 1.80521 5.36833 1.80354 9.91C1.80271 11.7642 2.34604 13.1525 3.25854 14.605L2.42604 17.645L5.54438 16.8275ZM15.0336 12.2742C14.9719 12.1708 14.8069 12.1092 14.5586 11.985C14.3111 11.8608 13.0936 11.2617 12.8661 11.1792C12.6394 11.0967 12.4744 11.055 12.3086 11.3033C12.1436 11.5508 11.6686 12.1092 11.5244 12.2742C11.3802 12.4392 11.2352 12.46 10.9877 12.3358C10.7402 12.2117 9.94188 11.9508 8.99604 11.1067C8.26021 10.45 7.76271 9.63917 7.61854 9.39083C7.47438 9.14333 7.60354 9.00917 7.72688 8.88583C7.83854 8.775 7.97438 8.59667 8.09854 8.45167C8.22438 8.30833 8.26521 8.205 8.34854 8.03917C8.43104 7.87417 8.39021 7.72917 8.32771 7.605C8.26521 7.48167 7.77021 6.2625 7.56438 5.76667C7.36271 5.28417 7.15854 5.34917 7.00688 5.34167L6.53188 5.33333C6.36688 5.33333 6.09854 5.395 5.87188 5.64333C5.64521 5.89167 5.00521 6.49 5.00521 7.70917C5.00521 8.92833 5.89271 10.1058 6.01604 10.2708C6.14021 10.4358 7.76188 12.9375 10.2461 14.01C10.8369 14.265 11.2986 14.4175 11.6577 14.5317C12.2511 14.72 12.7911 14.6933 13.2177 14.63C13.6936 14.5592 14.6827 14.0308 14.8894 13.4525C15.0961 12.8733 15.0961 12.3775 15.0336 12.2742Z" fill="white"/>
</g>
</g>
<defs>
<clipPath id="clip0_717_1940">
<rect width="20" height="20" fill="white"/>
</clipPath>
</defs>
</svg>
