<svg width="667" height="567" viewBox="0 0 667 567" fill="none" xmlns="http://www.w3.org/2000/svg">
<g clip-path="url(#clip0_323_1619)">
<path d="M330 539.161C246.421 539.161 178.667 532.224 178.667 523.666C178.667 518.148 206.855 513.301 249.291 510.557L249.852 515.647C250.324 519.936 253.988 523.136 258.21 523.136C258.514 523.136 258.821 523.118 259.13 523.085L386.681 509.294C442.177 511.592 481.333 517.161 481.333 523.666C481.333 532.224 413.58 539.161 330 539.161Z" fill="#C1DBEB"/>
<path d="M506.751 394.606C529.557 357.755 542.877 313.321 542.877 265.488C542.877 138.024 448.293 34.6924 331.616 34.6924C214.94 34.6924 120.354 138.024 120.354 265.488C120.354 313.321 133.674 357.755 156.484 394.606H506.751Z" fill="#C1DBEB"/>
<path d="M428.468 190.839H417.785V175.704H428.468V190.839ZM428.468 223.333H417.785V208.199H428.468V223.333ZM428.468 255.828H417.785V240.693H428.468V255.828ZM407.101 190.839H396.419V175.704H407.101V190.839ZM407.101 223.333H396.419V208.199H407.101V223.333ZM407.101 255.828H396.419V240.693H407.101V255.828ZM389.296 151.667V295H437.371V151.667H389.296Z" fill="#84A9CC"/>
<path d="M477.755 224.751H470.551V214.544H477.755V224.751ZM477.755 246.667H470.551V236.46H477.755V246.667ZM477.755 268.583H470.551V258.375H477.755V268.583ZM463.347 224.751H456.14V214.544H463.347V224.751ZM463.347 246.667H456.14V236.46H463.347V246.667ZM463.347 268.583H456.14V258.375H463.347V268.583ZM451.337 198.333V295H483.76V198.333H451.337Z" fill="#84A9CC"/>
<path d="M226.667 230.084H219.462V219.877H226.667V230.084ZM226.667 252H219.462V241.793H226.667V252ZM226.667 273.914H219.462V263.708H226.667V273.914ZM212.256 230.084H205.052V219.877H212.256V230.084ZM212.256 252H205.052V241.793H212.256V252ZM212.256 273.914H205.052V263.708H212.256V273.914ZM200.25 203.666V300.333H232.671V203.666H200.25Z" fill="#84A9CC"/>
<path d="M272.468 189.506H261.784V174.371H272.468V189.506ZM272.468 222H261.784V206.866H272.468V222ZM272.468 254.495H261.784V239.36H272.468V254.495ZM251.101 189.506H240.417V174.371H251.101V189.506ZM251.101 222H240.417V206.866H251.101V222ZM251.101 254.495H240.417V239.36H251.101V254.495ZM233.296 150.334V293.667H281.371V150.334H233.296Z" fill="#84A9CC"/>
<path d="M678.667 478.295L-14.6665 253.431V277.584L678.667 502.448V478.295Z" fill="#EF7C18"/>
<path d="M46.5808 273.294L21.9824 265.316L33.0048 293.044L57.6028 301.022L46.5808 273.294Z" fill="#26698F"/>
<path d="M111.179 294.246L86.5806 286.268L97.6026 313.995L122.201 321.974L111.179 294.246Z" fill="#26698F"/>
<path d="M175.778 315.196L151.18 307.218L162.202 334.947L186.8 342.924L175.778 315.196Z" fill="#243653"/>
<path d="M240.376 336.147L215.777 328.17L226.8 355.898L251.399 363.875L240.376 336.147Z" fill="#243653"/>
<path d="M304.975 357.097L280.377 349.12L291.399 376.848L315.997 384.825L304.975 357.097Z" fill="#243653"/>
<path d="M369.575 378.048L344.975 370.071L355.997 397.799L380.595 405.776L369.575 378.048Z" fill="#243653"/>
<path d="M434.172 398.999L409.575 391.021L420.595 418.748L445.193 426.727L434.172 398.999Z" fill="#243653"/>
<path d="M498.771 419.951L474.172 411.972L485.195 439.7L509.793 447.679L498.771 419.951Z" fill="#243653"/>
<path d="M563.369 440.901L538.771 432.922L549.793 460.65L574.392 468.629L563.369 440.901Z" fill="#243653"/>
<path d="M627.968 461.852L603.369 453.873L614.392 481.601L638.989 489.58L627.968 461.852Z" fill="#26698F"/>
<path d="M678.667 264.604L-14.6665 489.469V513.621L678.667 288.757V264.604Z" fill="#EF7C18"/>
<path d="M676.471 265.316L651.871 273.294L640.851 301.022L665.448 293.044L676.471 265.316Z" fill="#26698F"/>
<path d="M611.87 286.268L587.273 294.245L576.25 321.972L600.849 313.994L611.87 286.268Z" fill="#26698F"/>
<path d="M547.273 307.218L522.675 315.196L511.652 342.924L536.251 334.947L547.273 307.218Z" fill="#243653"/>
<path d="M482.675 328.17L458.076 336.147L447.053 363.875L471.652 355.898L482.675 328.17Z" fill="#243653"/>
<path d="M418.076 349.12L393.477 357.097L382.456 384.825L407.053 376.848L418.076 349.12Z" fill="#243653"/>
<path d="M353.476 370.071L328.879 378.048L317.857 405.776L342.456 397.799L353.476 370.071Z" fill="#243653"/>
<path d="M288.879 391.021L264.28 398.999L253.259 426.727L277.857 418.748L288.879 391.021Z" fill="#243653"/>
<path d="M224.28 411.972L199.681 419.951L188.66 447.679L213.258 439.7L224.28 411.972Z" fill="#243653"/>
<path d="M159.681 432.922L135.083 440.901L124.062 468.629L148.66 460.65L159.681 432.922Z" fill="#243653"/>
<path d="M95.0827 453.873L70.4843 461.852L59.4624 489.58L84.0613 481.601L95.0827 453.873Z" fill="#26698F"/>
<path d="M-5.13574 510.529L19.4627 502.552L30.4846 474.824L5.88612 482.803L-5.13574 510.529Z" fill="#26698F"/>
<path d="M585.914 472.365L574.392 468.628L563.369 440.901L593.442 450.655C591.454 458.047 588.924 465.288 585.914 472.365ZM549.793 460.651L531.626 454.759C537.246 451.915 541.172 446.163 541.392 439.516L549.793 460.651Z" fill="#CB7F1E"/>
<path d="M574.392 468.628L549.793 460.65L541.392 439.516C541.397 439.32 541.401 439.124 541.401 438.926V433.776L563.371 440.901L574.392 468.629" fill="#26698F"/>
<path d="M121.833 321.045L111.179 294.245L107.714 293.121L132.998 301.321C126.471 303.944 121.833 310.348 121.833 317.784V321.045ZM97.6027 313.994L92.1792 312.236C93.1803 310.836 94.2027 309.445 95.2459 308.065L97.6027 313.994Z" fill="#CB7F1E"/>
<path d="M121.833 321.854L97.6029 313.995L95.2461 308.066C99.1226 302.94 103.288 297.958 107.714 293.122L111.179 294.246L121.833 321.046V321.854Z" fill="#26698F"/>
<path d="M77.9561 483.583L84.0613 481.602L124.061 468.628V468.63L148.66 460.651L160.98 456.655H160.982L77.9561 483.583ZM95.0826 453.874L122.861 444.864V444.866L95.0821 453.875" fill="#C5A3AD"/>
<path d="M84.0615 481.602L95.0829 453.874L122.862 444.866C124.186 448.562 126.707 451.699 129.953 453.807L124.062 468.63L84.0615 481.602ZM148.66 460.651L150.248 456.655H160.98L148.66 460.651Z" fill="#CB7F1E"/>
<path d="M68.8389 462.386L70.4842 461.852L68.8394 462.386" fill="#C5A3AD"/>
<path d="M69.5186 464.281C69.2878 463.651 69.0618 463.019 68.8389 462.385L70.4842 461.852L69.5186 464.281Z" fill="#CB7F1E"/>
<path d="M124.062 468.629L129.953 453.806C132.726 455.606 136.027 456.654 139.56 456.654H150.248L148.66 460.65L124.062 468.629Z" fill="#26698F"/>
<path d="M77.956 483.583C74.7362 477.294 71.918 470.854 69.5186 464.282L70.4842 461.852L95.0826 453.875V453.874L84.0612 481.602L77.956 483.582" fill="#26698F"/>
<path d="M540.305 309.478L546.469 307.479L544.396 308.151L540.305 309.478Z" fill="#C5A3AD"/>
<path d="M541.401 333.276V321.991L547.273 307.219L559.603 303.22C564.693 309.548 569.329 316.107 573.507 322.863L541.401 333.276ZM539.464 309.751L540.305 309.478L544.396 308.151L539.464 309.751Z" fill="#CB7F1E"/>
<path d="M541.401 321.99V317.784C541.401 314.897 540.701 312.165 539.464 309.75L544.396 308.15L546.469 307.478L547.273 307.218L541.401 321.99Z" fill="#26698F"/>
<path d="M483.037 287.34L470.809 241.488L467.878 230.496L464.497 217.814H459.892H454.832H452.725L449.821 228.408L447.098 238.342L437.274 274.187L433.69 287.267L433.669 287.34H430.424H422.508V301.455H430.424H476.09H494.125V287.34H483.037Z" fill="#518AB5"/>
<path d="M221.583 285.34L209.355 239.488L206.424 228.496L203.043 215.814H198.438H193.378H191.271L188.367 226.408L185.644 236.342L175.82 272.187L172.236 285.267L172.215 285.34H168.97H161.054V299.455H168.97H214.636H232.671V285.34H221.583Z" fill="#518AB5"/>
<path d="M282.081 283.148C282.081 292.92 274.16 300.842 264.388 300.842C254.615 300.842 246.693 292.92 246.693 283.148C246.693 273.376 254.615 265.454 264.388 265.454C274.16 265.454 282.081 273.376 282.081 283.148Z" fill="#518AB5"/>
<path d="M523.674 456.654H139.56C129.81 456.654 121.833 448.677 121.833 438.926V317.784C121.833 308.032 129.81 300.054 139.56 300.054H523.674C533.423 300.054 541.402 308.032 541.402 317.784V438.926C541.402 448.677 533.423 456.654 523.674 456.654Z" fill="#EF7C18"/>
<path d="M188.52 391.011C178.784 391.011 171.172 388.299 165.683 382.876C160.194 377.453 157.45 369.71 157.45 359.647V321.226H173.328V359.059C173.328 365.593 174.667 370.298 177.346 373.173C180.026 376.048 183.783 377.485 188.618 377.485C193.453 377.485 197.21 376.048 199.89 373.173C202.569 370.298 203.908 365.593 203.908 359.059V321.226H219.59V359.647C219.59 369.71 216.846 377.453 211.357 382.876C205.868 388.299 198.256 391.011 188.52 391.011ZM235.281 389.835V321.226H248.414L288.894 370.624H282.523V321.226H298.205V389.835H285.169L244.592 340.436H250.963V389.835H235.281ZM314.438 389.835V321.226H345.606C353.055 321.226 359.622 322.663 365.306 325.538C370.991 328.348 375.434 332.301 378.636 337.398C381.838 342.495 383.439 348.539 383.439 355.53C383.439 362.457 381.838 368.501 378.636 373.663C375.434 378.759 370.991 382.745 365.306 385.62C359.622 388.43 353.055 389.835 345.606 389.835H314.438ZM330.316 376.799H344.822C349.396 376.799 353.349 375.95 356.681 374.251C360.079 372.487 362.693 370.004 364.522 366.802C366.417 363.6 367.365 359.843 367.365 355.53C367.365 351.152 366.417 347.395 364.522 344.259C362.693 341.057 360.079 338.607 356.681 336.908C353.349 335.144 349.396 334.262 344.822 334.262H330.316V376.799ZM410.017 348.865H443.048V361.215H410.017V348.865ZM411.193 377.093H448.536V389.835H395.413V321.226H447.262V333.968H411.193V377.093ZM461.17 389.835V321.226H490.868C497.01 321.226 502.303 322.239 506.746 324.264C511.189 326.224 514.62 329.067 517.038 332.791C519.455 336.516 520.664 340.959 520.664 346.121C520.664 351.218 519.455 355.628 517.038 359.353C514.62 363.012 511.189 365.822 506.746 367.782C502.303 369.742 497.01 370.722 490.868 370.722H469.991L477.048 363.763V389.835H461.17ZM504.786 389.835L487.634 364.94H504.59L521.938 389.835H504.786ZM477.048 365.528L469.991 358.079H489.986C494.887 358.079 498.546 357.033 500.963 354.942C503.381 352.786 504.59 349.846 504.59 346.121C504.59 342.331 503.381 339.391 500.963 337.3C498.546 335.209 494.887 334.164 489.986 334.164H469.991L477.048 326.617V365.528Z" fill="white"/>
<path d="M171.201 430.844C168.866 430.844 166.69 430.469 164.672 429.72C162.683 428.942 160.953 427.846 159.483 426.434C158.013 425.021 156.86 423.364 156.024 421.461C155.217 419.559 154.813 417.469 154.813 415.191C154.813 412.914 155.217 410.824 156.024 408.922C156.86 407.019 158.013 405.362 159.483 403.949C160.982 402.537 162.726 401.456 164.715 400.706C166.704 399.928 168.881 399.539 171.244 399.539C173.868 399.539 176.231 400 178.336 400.922C180.469 401.816 182.256 403.142 183.697 404.9L179.2 409.051C178.163 407.869 177.01 406.99 175.741 406.414C174.473 405.808 173.089 405.506 171.59 405.506C170.178 405.506 168.881 405.736 167.699 406.197C166.517 406.659 165.493 407.322 164.629 408.187C163.764 409.051 163.086 410.075 162.596 411.257C162.135 412.438 161.905 413.75 161.905 415.191C161.905 416.633 162.135 417.944 162.596 419.126C163.086 420.308 163.764 421.331 164.629 422.196C165.493 423.061 166.517 423.724 167.699 424.185C168.881 424.646 170.178 424.877 171.59 424.877C173.089 424.877 174.473 424.589 175.741 424.012C177.01 423.407 178.163 422.499 179.2 421.288L183.697 425.439C182.256 427.198 180.469 428.538 178.336 429.46C176.231 430.383 173.853 430.844 171.201 430.844ZM202.496 430.844C200.103 430.844 197.884 430.455 195.837 429.677C193.819 428.898 192.061 427.803 190.562 426.39C189.091 424.978 187.938 423.32 187.102 421.418C186.295 419.515 185.892 417.44 185.892 415.191C185.892 412.943 186.295 410.867 187.102 408.965C187.938 407.062 189.106 405.405 190.605 403.992C192.104 402.58 193.862 401.484 195.88 400.706C197.898 399.928 200.089 399.539 202.453 399.539C204.845 399.539 207.036 399.928 209.025 400.706C211.043 401.484 212.787 402.58 214.257 403.992C215.756 405.405 216.923 407.062 217.759 408.965C218.595 410.839 219.013 412.914 219.013 415.191C219.013 417.44 218.595 419.53 217.759 421.461C216.923 423.364 215.756 425.021 214.257 426.434C212.787 427.817 211.043 428.898 209.025 429.677C207.036 430.455 204.86 430.844 202.496 430.844ZM202.453 424.877C203.807 424.877 205.047 424.646 206.171 424.185C207.324 423.724 208.333 423.061 209.198 422.196C210.063 421.331 210.726 420.308 211.187 419.126C211.677 417.944 211.922 416.633 211.922 415.191C211.922 413.75 211.677 412.438 211.187 411.257C210.726 410.075 210.063 409.051 209.198 408.187C208.362 407.322 207.367 406.659 206.214 406.197C205.061 405.736 203.807 405.506 202.453 405.506C201.098 405.506 199.844 405.736 198.691 406.197C197.566 406.659 196.572 407.322 195.707 408.187C194.842 409.051 194.165 410.075 193.675 411.257C193.214 412.438 192.983 413.75 192.983 415.191C192.983 416.604 193.214 417.915 193.675 419.126C194.165 420.308 194.828 421.331 195.664 422.196C196.529 423.061 197.538 423.724 198.691 424.185C199.844 424.646 201.098 424.877 202.453 424.877ZM224.278 430.325V400.057H230.072L247.93 421.85H245.119V400.057H252.038V430.325H246.287L228.385 408.532H231.196V430.325H224.278ZM269.144 430.844C266.722 430.844 264.402 430.527 262.182 429.893C259.963 429.23 258.175 428.379 256.821 427.342L259.199 422.066C260.496 422.989 262.024 423.753 263.782 424.358C265.569 424.935 267.371 425.223 269.187 425.223C270.571 425.223 271.681 425.093 272.517 424.834C273.381 424.546 274.016 424.156 274.419 423.666C274.823 423.176 275.024 422.614 275.024 421.98C275.024 421.173 274.707 420.539 274.073 420.077C273.439 419.587 272.603 419.198 271.565 418.91C270.528 418.593 269.374 418.305 268.106 418.045C266.867 417.757 265.613 417.411 264.344 417.007C263.105 416.604 261.966 416.085 260.928 415.451C259.891 414.817 259.04 413.981 258.377 412.943C257.743 411.905 257.426 410.579 257.426 408.965C257.426 407.235 257.887 405.664 258.81 404.252C259.761 402.81 261.173 401.672 263.047 400.836C264.95 399.971 267.328 399.539 270.182 399.539C272.084 399.539 273.958 399.769 275.803 400.23C277.648 400.663 279.276 401.326 280.689 402.219L278.527 407.538C277.114 406.731 275.702 406.14 274.289 405.765C272.877 405.362 271.493 405.16 270.138 405.16C268.784 405.16 267.674 405.318 266.809 405.635C265.944 405.952 265.324 406.37 264.95 406.889C264.575 407.379 264.388 407.956 264.388 408.619C264.388 409.397 264.705 410.031 265.339 410.521C265.973 410.983 266.809 411.357 267.847 411.646C268.884 411.934 270.023 412.222 271.263 412.51C272.531 412.799 273.785 413.13 275.024 413.505C276.293 413.88 277.446 414.384 278.484 415.018C279.521 415.653 280.357 416.489 280.992 417.526C281.655 418.564 281.986 419.876 281.986 421.461C281.986 423.162 281.51 424.718 280.559 426.131C279.608 427.543 278.181 428.682 276.278 429.547C274.405 430.412 272.026 430.844 269.144 430.844ZM292.62 430.325V405.765H282.934V400.057H309.31V405.765H299.625V430.325H292.62ZM313.079 430.325V400.057H326.181C328.891 400.057 331.226 400.504 333.186 401.398C335.146 402.263 336.659 403.517 337.726 405.16C338.792 406.803 339.326 408.763 339.326 411.04C339.326 413.289 338.792 415.235 337.726 416.878C336.659 418.492 335.146 419.731 333.186 420.596C331.226 421.461 328.891 421.893 326.181 421.893H316.971L320.084 418.823V430.325H313.079ZM332.321 430.325L324.754 419.342H332.234L339.888 430.325H332.321ZM320.084 419.602L316.971 416.316H325.792C327.954 416.316 329.568 415.854 330.635 414.932C331.701 413.981 332.234 412.683 332.234 411.04C332.234 409.368 331.701 408.071 330.635 407.149C329.568 406.226 327.954 405.765 325.792 405.765H316.971L320.084 402.436V419.602ZM358.323 430.844C354.028 430.844 350.67 429.648 348.248 427.255C345.827 424.863 344.616 421.447 344.616 417.007V400.057H351.621V416.748C351.621 419.631 352.212 421.706 353.394 422.974C354.576 424.243 356.233 424.877 358.366 424.877C360.5 424.877 362.157 424.243 363.339 422.974C364.521 421.706 365.112 419.631 365.112 416.748V400.057H372.03V417.007C372.03 421.447 370.819 424.863 368.398 427.255C365.977 429.648 362.618 430.844 358.323 430.844ZM393.437 430.844C391.102 430.844 388.926 430.469 386.908 429.72C384.919 428.942 383.19 427.846 381.72 426.434C380.249 425.021 379.096 423.364 378.26 421.461C377.453 419.559 377.05 417.469 377.05 415.191C377.05 412.914 377.453 410.824 378.26 408.922C379.096 407.019 380.249 405.362 381.72 403.949C383.218 402.537 384.962 401.456 386.951 400.706C388.941 399.928 391.117 399.539 393.481 399.539C396.104 399.539 398.468 400 400.572 400.922C402.705 401.816 404.492 403.142 405.934 404.9L401.437 409.051C400.399 407.869 399.246 406.99 397.978 406.414C396.709 405.808 395.326 405.506 393.827 405.506C392.414 405.506 391.117 405.736 389.935 406.197C388.753 406.659 387.73 407.322 386.865 408.187C386 409.051 385.323 410.075 384.833 411.257C384.372 412.438 384.141 413.75 384.141 415.191C384.141 416.633 384.372 417.944 384.833 419.126C385.323 420.308 386 421.331 386.865 422.196C387.73 423.061 388.753 423.724 389.935 424.185C391.117 424.646 392.414 424.877 393.827 424.877C395.326 424.877 396.709 424.589 397.978 424.012C399.246 423.407 400.399 422.499 401.437 421.288L405.934 425.439C404.492 427.198 402.705 428.538 400.572 429.46C398.468 430.383 396.089 430.844 393.437 430.844ZM416.638 430.325V405.765H406.953V400.057H433.329V405.765H423.643V430.325H416.638ZM437.098 430.325V400.057H444.102V430.325H437.098ZM465.987 430.844C463.594 430.844 461.375 430.455 459.328 429.677C457.31 428.898 455.552 427.803 454.053 426.39C452.583 424.978 451.43 423.32 450.594 421.418C449.787 419.515 449.383 417.44 449.383 415.191C449.383 412.943 449.787 410.867 450.594 408.965C451.43 407.062 452.597 405.405 454.096 403.992C455.595 402.58 457.354 401.484 459.371 400.706C461.389 399.928 463.58 399.539 465.944 399.539C468.336 399.539 470.527 399.928 472.516 400.706C474.534 401.484 476.278 402.58 477.748 403.992C479.247 405.405 480.415 407.062 481.251 408.965C482.087 410.839 482.505 412.914 482.505 415.191C482.505 417.44 482.087 419.53 481.251 421.461C480.415 423.364 479.247 425.021 477.748 426.434C476.278 427.817 474.534 428.898 472.516 429.677C470.527 430.455 468.351 430.844 465.987 430.844ZM465.944 424.877C467.299 424.877 468.538 424.646 469.662 424.185C470.815 423.724 471.824 423.061 472.689 422.196C473.554 421.331 474.217 420.308 474.678 419.126C475.168 417.944 475.413 416.633 475.413 415.191C475.413 413.75 475.168 412.438 474.678 411.257C474.217 410.075 473.554 409.051 472.689 408.187C471.853 407.322 470.859 406.659 469.706 406.197C468.553 405.736 467.299 405.506 465.944 405.506C464.589 405.506 463.335 405.736 462.182 406.197C461.058 406.659 460.063 407.322 459.198 408.187C458.334 409.051 457.656 410.075 457.166 411.257C456.705 412.438 456.474 413.75 456.474 415.191C456.474 416.604 456.705 417.915 457.166 419.126C457.656 420.308 458.319 421.331 459.155 422.196C460.02 423.061 461.029 423.724 462.182 424.185C463.335 424.646 464.589 424.877 465.944 424.877ZM487.769 430.325V400.057H493.563L511.421 421.85H508.61V400.057H515.529V430.325H509.778L491.877 408.532H494.687V430.325H487.769Z" fill="white"/>
<path d="M408.966 289.715H254.27L315.815 65.1562H349.082L408.966 289.715Z" fill="#5E99BA"/>
<path d="M307.608 95.0975L297.478 132.062H366.923L357.067 95.0975H307.608Z" fill="white"/>
<path d="M289.88 159.784L279.748 196.749H384.173L374.316 159.784H289.88Z" fill="white"/>
<path d="M401.423 261.436L391.567 224.472H272.151L262.019 261.436H401.423Z" fill="white"/>
<path d="M401.48 261.645H357.311L357.288 261.437H401.423L391.567 224.473H353.292L350.295 196.75H384.173L374.316 159.785H346.299L343.301 132.062H366.923L360.879 109.395L401.48 261.645ZM357.067 95.0979H339.305L336.069 65.1565H349.081L357.067 95.0979Z" fill="#4584A8"/>
<path d="M279.195 261.645H261.963L262.019 261.437H279.24L279.195 261.645ZM266.716 244.302L279.748 196.75H293.256L287.25 224.473H272.151L266.716 244.302ZM284.372 179.878L297.478 132.062H307.272L301.266 159.785H289.88L284.372 179.878ZM315.28 95.0979H307.608L315.815 65.1565H321.768L315.28 95.0979Z" fill="#4584A8"/>
<path d="M307.272 132.062H297.478L307.608 95.0975H315.28L307.272 132.062Z" fill="white"/>
<path d="M293.256 196.749H279.748L284.372 179.877L289.88 159.784H301.265L293.256 196.749Z" fill="white"/>
<path d="M279.24 261.436H262.019L266.716 244.301L272.151 224.472H287.249L279.24 261.436Z" fill="white"/>
<path d="M230.418 301.532H432.814V261.644H230.418V301.532Z" fill="#5E99BA"/>
<path d="M381.847 301.532H432.814V261.644H381.847V301.532Z" fill="#4584A8"/>
<path d="M230.418 301.532H252.792V261.644H230.418V301.532Z" fill="#4584A8"/>
<path d="M259.076 522.588L259.077 522.588L408.809 506.4C408.81 506.4 408.81 506.4 408.81 506.4C413.134 505.925 416.281 501.996 415.806 497.673L409.514 440.557C409.037 436.234 405.11 433.086 400.787 433.561L400.786 433.561L251.052 449.747C251.052 449.747 251.052 449.747 251.052 449.748C246.73 450.224 243.581 454.153 244.057 458.476L243.56 458.53L244.057 458.476L250.349 515.592L250.349 515.592C250.824 519.916 254.753 523.063 259.076 522.588Z" fill="#26698F" stroke="black"/>
<path d="M261.397 517.914L254.72 457.3L254.664 457.305H254.721L254.72 457.299L254.664 457.305H254.721H254.696L254.72 457.315L254.721 457.305H254.696L254.72 457.315L254.733 457.296H254.735L254.715 457.252L254.72 457.299L254.735 457.296L254.715 457.252L254.72 457.299L399.56 441.651L399.26 438.864L254.416 454.513H254.413C252.964 454.692 251.933 455.881 251.917 457.305L251.935 457.607L258.611 518.22L261.397 517.914Z" fill="#26698F"/>
<path d="M261.394 517.898L261.261 516.68L261.092 515.112L405.934 499.463L405.945 499.449L399.272 438.877L402.058 438.571L408.733 499.155L408.749 499.456C408.734 500.88 407.702 502.069 406.25 502.248L261.393 517.898" fill="#26698F"/>
<path d="M261.393 517.898L261.261 516.68L261.395 517.898H261.393Z" fill="#005789"/>
<path d="M281.537 483.269C279.927 483.446 278.399 483.353 276.95 482.99C275.52 482.604 274.244 481.98 273.124 481.118C272.003 480.256 271.082 479.201 270.361 477.952C269.66 476.702 269.223 475.292 269.05 473.722C268.877 472.152 268.997 470.68 269.409 469.307C269.841 467.932 270.51 466.702 271.416 465.616C272.342 464.529 273.463 463.651 274.777 462.983C276.089 462.296 277.56 461.862 279.19 461.683C280.998 461.483 282.663 461.622 284.184 462.098C285.722 462.552 287.055 463.331 288.182 464.433L285.397 467.637C284.592 466.901 283.73 466.382 282.812 466.081C281.892 465.76 280.915 465.656 279.881 465.77C278.908 465.877 278.031 466.135 277.251 466.543C276.471 466.95 275.816 467.485 275.285 468.147C274.755 468.809 274.366 469.566 274.117 470.418C273.889 471.268 273.83 472.19 273.939 473.183C274.049 474.177 274.307 475.064 274.715 475.844C275.143 476.621 275.687 477.275 276.349 477.806C277.011 478.336 277.767 478.716 278.617 478.944C279.467 479.172 280.379 479.233 281.352 479.125C282.386 479.012 283.318 478.708 284.149 478.214C284.977 477.7 285.703 476.987 286.327 476.073L289.742 478.593C288.882 479.915 287.752 480.975 286.351 481.773C284.97 482.569 283.366 483.067 281.537 483.269ZM303.113 480.892C301.463 481.074 299.903 480.974 298.433 480.593C296.983 480.21 295.687 479.588 294.547 478.728C293.426 477.866 292.505 476.811 291.784 475.562C291.083 474.312 290.647 472.912 290.477 471.362C290.306 469.812 290.427 468.35 290.839 466.977C291.27 465.602 291.949 464.37 292.876 463.283C293.802 462.195 294.931 461.306 296.263 460.617C297.595 459.927 299.076 459.492 300.705 459.313C302.355 459.131 303.895 459.233 305.325 459.618C306.776 460.002 308.061 460.624 309.182 461.487C310.323 462.347 311.253 463.401 311.974 464.649C312.693 465.877 313.139 467.276 313.312 468.846C313.482 470.397 313.353 471.869 312.923 473.264C312.491 474.639 311.812 475.871 310.886 476.958C309.978 478.024 308.858 478.902 307.525 479.591C306.213 480.279 304.742 480.713 303.113 480.892ZM302.63 476.782C303.564 476.679 304.401 476.426 305.141 476.022C305.901 475.617 306.546 475.083 307.077 474.421C307.607 473.759 307.987 473.003 308.215 472.154C308.463 471.301 308.532 470.379 308.423 469.385C308.313 468.391 308.045 467.506 307.617 466.728C307.209 465.948 306.675 465.293 306.013 464.762C305.371 464.23 304.635 463.848 303.805 463.618C302.975 463.387 302.093 463.324 301.159 463.426C300.225 463.529 299.378 463.784 298.618 464.189C297.878 464.592 297.242 465.125 296.712 465.787C296.181 466.449 295.792 467.206 295.544 468.058C295.316 468.908 295.256 469.829 295.366 470.823C295.473 471.797 295.732 472.684 296.141 473.483C296.569 474.261 297.104 474.916 297.746 475.449C298.408 475.979 299.154 476.36 299.984 476.59C300.814 476.821 301.696 476.885 302.63 476.782ZM318.09 478.88L315.792 458.013L319.786 457.573L330.292 471.321L328.176 471.554L335.288 455.865L339.253 455.429L341.611 476.289L337.08 476.789L335.516 462.87L336.351 462.778L330.666 475.262L328.49 475.502L320.075 464.571L321.088 464.46L322.622 478.381L318.09 478.88Z" fill="white"/>
<path d="M342.549 476.187L340.251 455.319L345.08 454.787L347.379 475.655L342.549 476.187ZM352.331 475.109L350.032 454.242L354.027 453.802L367.994 467.47L366.056 467.684L364.401 452.659L369.171 452.134L371.469 473.001L367.505 473.438L353.508 459.773L355.446 459.559L357.101 474.584L352.331 475.109ZM386.522 471.705C384.872 471.887 383.324 471.796 381.876 471.433C380.445 471.047 379.16 470.424 378.019 469.564C376.898 468.702 375.977 467.647 375.256 466.399C374.556 465.148 374.119 463.738 373.946 462.168C373.773 460.598 373.892 459.127 374.304 457.754C374.736 456.379 375.415 455.147 376.341 454.06C377.267 452.972 378.398 452.093 379.732 451.423C381.064 450.733 382.565 450.296 384.234 450.113C386.082 449.909 387.776 450.034 389.314 450.488C390.873 450.94 392.223 451.697 393.366 452.757L390.581 455.961C389.738 455.249 388.849 454.754 387.913 454.475C386.975 454.176 385.979 454.084 384.926 454.2C383.912 454.312 383.005 454.573 382.206 454.982C381.406 455.392 380.731 455.929 380.181 456.593C379.65 457.255 379.261 458.012 379.013 458.864C378.784 459.714 378.725 460.636 378.835 461.63C378.942 462.603 379.199 463.48 379.607 464.26C380.035 465.038 380.581 465.702 381.245 466.252C381.926 466.78 382.692 467.159 383.542 467.387C384.412 467.613 385.343 467.671 386.337 467.562C387.291 467.457 388.199 467.206 389.06 466.809C389.939 466.391 390.766 465.767 391.539 464.937L394.666 468.123C393.627 469.102 392.378 469.904 390.918 470.527C389.478 471.148 388.013 471.541 386.522 471.705ZM390.185 467.983L389.322 460.143L393.734 459.657L394.666 468.123L390.185 467.983Z" fill="white"/>
<path d="M296.235 505.85C294.566 506.034 292.942 505.991 291.364 505.723C289.783 505.434 288.486 504.984 287.473 504.371L288.712 500.554C289.677 501.091 290.788 501.502 292.046 501.785C293.322 502.047 294.586 502.109 295.838 501.971C296.792 501.866 297.547 501.692 298.104 501.45C298.678 501.186 299.086 500.869 299.327 500.501C299.568 500.132 299.665 499.729 299.616 499.292C299.555 498.736 299.288 498.323 298.816 498.053C298.342 497.763 297.736 497.558 296.998 497.438C296.259 497.298 295.442 497.187 294.548 497.105C293.671 497 292.781 496.857 291.876 496.675C290.99 496.491 290.166 496.22 289.402 495.861C288.639 495.503 287.989 494.991 287.453 494.326C286.937 493.659 286.618 492.769 286.495 491.656C286.364 490.463 286.562 489.345 287.091 488.301C287.637 487.235 288.525 486.343 289.753 485.624C290.999 484.884 292.606 484.405 294.573 484.188C295.885 484.044 297.194 484.06 298.501 484.238C299.806 484.396 300.979 484.73 302.021 485.239L300.934 489.069C299.899 488.62 298.88 488.32 297.878 488.169C296.874 487.998 295.904 487.964 294.97 488.067C294.036 488.17 293.283 488.363 292.711 488.648C292.139 488.932 291.743 489.267 291.524 489.653C291.303 490.02 291.218 490.431 291.268 490.888C291.327 491.425 291.594 491.838 292.069 492.128C292.541 492.398 293.146 492.593 293.883 492.713C294.62 492.832 295.427 492.945 296.304 493.049C297.2 493.152 298.09 493.285 298.973 493.449C299.876 493.611 300.709 493.872 301.473 494.23C302.236 494.588 302.876 495.101 303.392 495.769C303.928 496.434 304.256 497.313 304.376 498.406C304.506 499.578 304.296 500.688 303.747 501.734C303.199 502.78 302.302 503.673 301.056 504.414C299.829 505.152 298.223 505.631 296.235 505.85ZM318.525 503.395C316.875 503.576 315.315 503.477 313.845 503.096C312.395 502.712 311.099 502.09 309.959 501.231C308.838 500.368 307.917 499.313 307.196 498.065C306.495 496.815 306.059 495.414 305.889 493.864C305.718 492.314 305.838 490.852 306.25 489.48C306.682 488.104 307.361 486.873 308.287 485.785C309.214 484.698 310.343 483.809 311.675 483.119C313.007 482.429 314.488 481.995 316.117 481.815C317.767 481.633 319.307 481.735 320.737 482.121C322.187 482.504 323.473 483.127 324.594 483.989C325.735 484.849 326.665 485.903 327.386 487.151C328.105 488.38 328.551 489.779 328.724 491.349C328.894 492.899 328.765 494.372 328.335 495.767C327.903 497.142 327.224 498.373 326.298 499.461C325.39 500.526 324.269 501.404 322.937 502.094C321.625 502.782 320.154 503.215 318.525 503.395ZM318.042 499.284C318.976 499.181 319.813 498.928 320.553 498.525C321.313 498.119 321.958 497.585 322.488 496.924C323.019 496.262 323.398 495.506 323.627 494.656C323.875 493.804 323.944 492.881 323.835 491.887C323.725 490.894 323.457 490.008 323.029 489.23C322.621 488.451 322.086 487.795 321.425 487.265C320.783 486.732 320.047 486.351 319.217 486.12C318.387 485.89 317.505 485.826 316.57 485.929C315.636 486.032 314.789 486.286 314.029 486.692C313.289 487.095 312.654 487.628 312.124 488.289C311.593 488.951 311.204 489.708 310.956 490.56C310.727 491.41 310.668 492.332 310.778 493.326C310.885 494.299 311.143 495.186 311.553 495.986C311.981 496.764 312.516 497.419 313.158 497.951C313.82 498.482 314.566 498.862 315.396 499.093C316.225 499.323 317.108 499.387 318.042 499.284ZM343.677 500.624C342.028 500.806 340.468 500.706 338.998 500.325C337.547 499.942 336.252 499.32 335.111 498.46C333.99 497.598 333.07 496.543 332.349 495.294C331.648 494.044 331.212 492.644 331.041 491.094C330.871 489.543 330.991 488.082 331.403 486.709C331.835 485.334 332.514 484.102 333.44 483.015C334.366 481.927 335.495 481.038 336.827 480.348C338.16 479.659 339.64 479.224 341.27 479.044C342.92 478.863 344.46 478.965 345.89 479.35C347.34 479.734 348.626 480.356 349.747 481.219C350.887 482.078 351.818 483.133 352.539 484.381C353.257 485.609 353.703 487.008 353.876 488.578C354.047 490.128 353.918 491.601 353.488 492.996C353.056 494.371 352.377 495.603 351.451 496.69C350.542 497.756 349.422 498.634 348.09 499.323C346.778 500.011 345.307 500.445 343.677 500.624ZM343.194 496.513C344.128 496.411 344.965 496.157 345.705 495.754C346.465 495.349 347.111 494.815 347.641 494.153C348.172 493.491 348.551 492.735 348.779 491.885C349.027 491.033 349.097 490.11 348.987 489.117C348.878 488.123 348.609 487.237 348.182 486.46C347.774 485.68 347.239 485.025 346.577 484.494C345.935 483.962 345.199 483.58 344.369 483.35C343.539 483.119 342.657 483.055 341.723 483.158C340.789 483.261 339.942 483.515 339.182 483.921C338.442 484.324 337.807 484.857 337.276 485.519C336.746 486.181 336.356 486.938 336.108 487.79C335.88 488.64 335.821 489.561 335.93 490.555C336.037 491.529 336.296 492.416 336.706 493.215C337.134 493.993 337.668 494.648 338.31 495.181C338.972 495.711 339.718 496.092 340.548 496.322C341.378 496.553 342.26 496.616 343.194 496.513ZM358.655 498.612L356.356 477.745L360.351 477.305L374.318 490.973L372.38 491.187L370.725 476.162L375.495 475.637L377.793 496.504L373.829 496.941L359.832 483.276L361.77 483.062L363.425 498.087L358.655 498.612Z" fill="white"/>
</g>
<defs>
<clipPath id="clip0_323_1619">
<rect width="667" height="567" fill="white"/>
</clipPath>
</defs>
</svg>
